<?xml version="1.0" encoding="utf-8"?>
<svg xmlns="http://www.w3.org/2000/svg"
	xmlns:xlink="http://www.w3.org/1999/xlink"
	width="43px" height="43px" viewBox="0 0 43 43">
<circle cx="21.50" cy="21.50" r="21.50" fill="rgb(221,75,57)"/><path fillRule="evenodd" d="M 22.38 22.57C 22.38 21.3 24.76 21 24.76 18.4 24.76 17.14 24.19 16.25 23.25 15.46 23.25 15.46 24.57 15.46 24.57 15.46 24.57 15.46 25.95 14.58 25.95 14.58 25.95 14.58 21.76 14.58 21.76 14.58 20.36 14.58 18.83 14.95 17.74 15.88 16.91 16.61 16.39 17.69 16.39 18.8 16.39 20.79 17.95 22.22 19.91 22.22 20.14 22.22 20.36 22.2 20.59 22.18 20.47 22.46 20.38 22.71 20.38 23.03 20.38 23.63 20.66 24.05 21.01 24.51 19.66 24.6 18.13 24.78 16.96 25.51 16.02 26.09 15.32 27.04 15.32 28.17 15.32 28.63 15.45 29.1 15.69 29.49 16.53 30.89 18.38 31.29 19.89 31.29 21.81 31.29 23.97 30.66 25 28.91 25.3 28.38 25.48 27.78 25.48 27.17 25.48 24.34 22.38 23.9 22.38 22.57ZM 20.91 21.61C 19.11 21.61 18.25 19.24 18.25 17.73 18.25 17.17 18.36 16.58 18.72 16.12 19.07 15.68 19.65 15.4 20.21 15.4 22.02 15.4 22.89 17.92 22.89 19.41 22.89 20 22.77 20.56 22.36 21 22.01 21.37 21.42 21.61 20.91 21.61ZM 20.93 30.37C 19.31 30.37 17.19 29.67 17.19 27.71 17.19 25.64 19.62 25.12 21.26 25.12 21.42 25.12 21.58 25.12 21.74 25.14 22.71 25.84 24.06 26.67 24.06 28.02 24.06 29.75 22.42 30.37 20.93 30.37ZM 29.07 21.58C 29.07 21.58 29.07 19.4 29.07 19.4 29.07 19.4 28.01 19.4 28.01 19.4 28.01 19.4 28.01 21.58 28.01 21.58 28.01 21.58 25.88 21.58 25.88 21.58 25.88 21.58 25.88 22.66 25.88 22.66 25.88 22.66 28.01 22.66 28.01 22.66 28.01 22.66 28.01 24.86 28.01 24.86 28.01 24.86 29.07 24.86 29.07 24.86 29.07 24.86 29.07 22.66 29.07 22.66 29.07 22.66 31.2 22.66 31.2 22.66 31.2 22.66 31.2 21.58 31.2 21.58 31.2 21.58 29.07 21.58 29.07 21.58Z" fill="rgb(255,255,255)"/></svg>