<?xml version="1.0" encoding="utf-8"?>
<svg xmlns="http://www.w3.org/2000/svg"
	xmlns:xlink="http://www.w3.org/1999/xlink"
	width="108px" height="28px" viewBox="0 0 108 28">
<g transform="matrix(0.88 0.00 0.00 0.88 0.00 0.00)"><path fillRule="evenodd" d="M 117.98 26.84C 114.87 29.88 111.12 31.39 106.71 31.39 102.82 31.39 99.33 30.05 96.23 27.35 92.81 24.37 91.11 20.46 91.11 15.63 91.11 11.39 92.67 7.74 95.78 4.7 98.88 1.65 102.6 0.12 106.95 0.12 111.25 0.12 114.93 1.66 118 4.73 121.09 7.81 122.63 11.5 122.63 15.81 122.63 20.14 121.08 23.82 117.98 26.84ZM 114.82 7.68C 112.68 5.5 110.04 4.4 106.89 4.4 103.75 4.4 101.1 5.5 98.94 7.68 96.78 9.84 95.7 12.51 95.7 15.68 95.7 19.01 96.82 21.75 99.06 23.9 101.29 26.04 103.86 27.12 106.77 27.12 109.94 27.12 112.61 26.02 114.78 23.84 116.96 21.63 118.04 18.93 118.04 15.76 118.04 12.55 116.97 9.85 114.82 7.68ZM 81.45 26.69C 78.65 29.84 75.09 31.41 70.77 31.41 66.55 31.41 62.94 29.89 59.93 26.84 56.92 23.78 55.42 20.11 55.42 15.83 55.42 11.45 56.95 7.74 60.01 4.7 63.07 1.64 66.79 0.11 71.18 0.11 73.54 0.11 75.74 0.59 77.78 1.54 79.73 2.5 81.65 4.06 83.54 6.22 83.54 6.22 80.3 9.32 80.3 9.32 77.83 6.03 74.81 4.38 71.26 4.38 68.07 4.38 65.39 5.48 63.23 7.68 61.07 9.85 59.99 12.55 59.99 15.81 59.99 19.17 61.19 21.93 63.6 24.11 65.85 26.13 68.3 27.14 70.93 27.14 73.17 27.14 75.18 26.38 76.96 24.88 78.74 23.36 79.74 21.54 79.95 19.42 79.95 19.42 72.43 19.42 72.43 19.42 72.43 19.42 72.43 15.14 72.43 15.14 72.43 15.14 84.89 15.14 84.89 15.14 84.89 15.14 84.89 16.14 84.89 16.14 84.89 18.41 84.62 20.41 84.09 22.16 83.57 23.77 82.69 25.28 81.45 26.69ZM 33.28 31.39C 29.39 31.39 25.89 30.05 22.79 27.35 19.38 24.37 17.68 20.46 17.68 15.63 17.68 11.39 19.23 7.74 22.34 4.7 25.44 1.65 29.17 0.12 33.52 0.12 37.81 0.12 41.5 1.66 44.57 4.73 47.66 7.81 49.2 11.5 49.2 15.81 49.2 20.14 47.65 23.82 44.55 26.84 41.44 29.88 37.68 31.39 33.28 31.39ZM 41.39 7.68C 39.25 5.5 36.61 4.4 33.46 4.4 30.32 4.4 27.67 5.5 25.51 7.68 23.35 9.84 22.27 12.51 22.27 15.68 22.27 19.01 23.39 21.75 25.62 23.9 27.85 26.04 30.42 27.12 33.34 27.12 36.5 27.12 39.17 26.02 41.35 23.84 43.52 21.63 44.61 18.93 44.61 15.76 44.61 12.55 43.54 9.85 41.39 7.68ZM 0.68 0.69C 0.68 0.69 5.23 0.69 5.23 0.69 5.23 0.69 5.23 26.57 5.23 26.57 5.23 26.57 14.09 26.57 14.09 26.57 14.09 26.57 14.09 30.85 14.09 30.85 14.09 30.85 0.68 30.85 0.68 30.85 0.68 30.85 0.68 0.69 0.68 0.69Z" fill="rgb(255,255,255)"/><path fillRule="evenodd" d="M 117.98 26.84C 114.87 29.88 111.12 31.39 106.71 31.39 102.82 31.39 99.33 30.05 96.23 27.35 92.81 24.37 91.11 20.46 91.11 15.63 91.11 11.39 92.67 7.74 95.78 4.7 98.88 1.65 102.6 0.12 106.95 0.12 111.25 0.12 114.93 1.66 118 4.73 121.09 7.81 122.63 11.5 122.63 15.81 122.63 20.14 121.08 23.82 117.98 26.84ZM 114.82 7.68C 112.68 5.5 110.04 4.4 106.89 4.4 103.75 4.4 101.1 5.5 98.94 7.68 96.78 9.84 95.7 12.51 95.7 15.68 95.7 19.01 96.82 21.75 99.06 23.9 101.29 26.04 103.86 27.12 106.77 27.12 109.94 27.12 112.61 26.02 114.78 23.84 116.96 21.63 118.04 18.93 118.04 15.76 118.04 12.55 116.97 9.85 114.82 7.68Z" fill="rgb(243,101,35)"/></g></svg>