<?xml version="1.0" encoding="utf-8"?>
<svg xmlns="http://www.w3.org/2000/svg"
	xmlns:xlink="http://www.w3.org/1999/xlink"
	width="43px" height="43px" viewBox="0 0 43 43">
<circle cx="21.50" cy="21.50" r="21.50" fill="rgb(85,171,237)"/><path fillRule="evenodd" d="M 30.27 18.67C 29.68 18.93 29.05 19.11 28.4 19.18 29.07 18.78 29.58 18.14 29.82 17.39 29.2 17.76 28.5 18.03 27.77 18.17 27.17 17.54 26.33 17.15 25.4 17.15 23.6 17.15 22.15 18.6 22.15 20.39 22.15 20.64 22.18 20.89 22.23 21.13 19.54 20.99 17.14 19.71 15.55 17.74 15.27 18.22 15.1 18.78 15.1 19.38 15.1 20.5 15.68 21.5 16.55 22.08 16.02 22.06 15.52 21.91 15.08 21.67 15.08 21.68 15.08 21.7 15.08 21.71 15.08 23.28 16.2 24.59 17.68 24.89 17.41 24.96 17.12 25 16.83 25 16.62 25 16.42 24.98 16.22 24.95 16.63 26.23 17.83 27.17 19.25 27.2 18.14 28.07 16.74 28.58 15.22 28.58 14.95 28.58 14.7 28.57 14.44 28.54 15.88 29.47 17.58 30 19.42 30 25.39 30 28.65 25.06 28.65 20.77 28.65 20.63 28.65 20.49 28.64 20.35 29.27 19.89 29.82 19.32 30.27 18.67Z" fill="rgb(255,255,255)"/></svg>