<?xml version="1.0" encoding="utf-8"?>
<svg xmlns="http://www.w3.org/2000/svg"
	xmlns:xlink="http://www.w3.org/1999/xlink"
	width="40px" height="40px" viewBox="0 0 40 40">
<clipPath id="clip0"><path fillRule="evenodd" d="M-4 44C-4 44-4-4-4-4-4-4 44-4 44-4 44-4 44 44 44 44 44 44-4 44-4 44ZM 20 4C 11.16 4 4 11.16 4 20 4 28.84 11.16 36 20 36 28.84 36 36 28.84 36 20 36 11.16 28.84 4 20 4Z"/></clipPath><defs>
<symbol id="symbol0"><circle cx="20.00" cy="20.00" r="16.00"/></symbol></defs>
<g><use xlink:href="#symbol0" x="0" y="0" width="40" height="40" fill="rgb(255,77,79)"/><use xlink:href="#symbol0" x="0" y="0" width="40" height="40" fill="none" stroke="rgb(255,255,255)" stroke-width="4.00px" clip-path="url(#clip0)"/></g><path fillRule="evenodd" d="M 26.66 15C 26.66 15 20.99 15 20.99 15 20.99 15 23.23 12.31 23.23 12.31 23.26 12.32 23.29 12.33 23.33 12.33 23.7 12.33 24 12.03 24 11.67 24 11.3 23.7 11 23.33 11 22.96 11 22.66 11.3 22.66 11.67 22.66 11.75 22.68 11.82 22.71 11.89 22.71 11.89 20.12 15 20.12 15 20.12 15 19.88 15 19.88 15 19.88 15 17.29 11.89 17.29 11.89 17.31 11.82 17.33 11.75 17.33 11.67 17.33 11.3 17.03 11 16.66 11 16.3 11 16 11.3 16 11.67 16 12.03 16.3 12.33 16.66 12.33 16.7 12.33 16.73 12.32 16.77 12.31 16.77 12.31 19.01 15 19.01 15 19.01 15 13.33 15 13.33 15 12.6 15 12 15.6 12 16.33 12 16.33 12 25.67 12 25.67 12 26.41 12.6 27 13.33 27 13.33 27 26.66 27 26.66 27 27.4 27 28 26.41 28 25.67 28 25.67 28 16.33 28 16.33 28 15.6 27.4 15 26.66 15ZM 24 24.34C 24 25.07 23.4 25.67 22.66 25.67 22.66 25.67 14.67 25.67 14.67 25.67 13.93 25.67 13.33 25.07 13.33 24.34 13.33 24.34 13.33 17.67 13.33 17.67 13.33 16.93 13.93 16.33 14.67 16.33 14.67 16.33 22.66 16.33 22.66 16.33 23.4 16.33 24 16.93 24 17.67 24 17.67 24 24.34 24 24.34ZM 25.96 18.38C 25.43 18.38 25.01 17.95 25.01 17.42 25.01 16.9 25.43 16.47 25.96 16.47 26.49 16.47 26.91 16.9 26.91 17.42 26.91 17.95 26.49 18.38 25.96 18.38Z" fill="rgb(255,255,255)"/></svg>