<?xml version="1.0" encoding="utf-8"?>
<svg xmlns="http://www.w3.org/2000/svg"
	xmlns:xlink="http://www.w3.org/1999/xlink"
	width="41px" height="40px" viewBox="0 0 41 40">
<clipPath id="clip0"><path fillRule="evenodd" d="M-3.06 43.97C-3.06 43.97-3.06-4.03-3.06-4.03-3.06-4.03 44.97-4.03 44.97-4.03 44.97-4.03 44.97 43.97 44.97 43.97 44.97 43.97-3.06 43.97-3.06 43.97ZM 20.95 3.97C 12.11 3.97 4.94 11.13 4.94 19.97 4.94 28.81 12.11 35.97 20.95 35.97 29.8 35.97 36.97 28.81 36.97 19.97 36.97 11.13 29.8 3.97 20.95 3.97Z"/></clipPath><defs>
<symbol id="symbol0"><circle cx="21.00" cy="20.00" r="16.00"/></symbol></defs>
<g><use xlink:href="#symbol0" x="0" y="0" width="41" height="40" fill="rgb(255,164,7)"/><use xlink:href="#symbol0" x="0" y="0" width="41" height="40" fill="none" stroke="rgb(255,255,255)" stroke-width="4.00px" clip-path="url(#clip0)"/></g><path fillRule="evenodd" d="M 27.22 25.99C 27.4 26.43 27.35 26.94 27.07 27.35 26.8 27.76 26.34 28 25.84 28 25.84 28 17.12 28 17.12 28 16.63 28 16.17 27.76 15.89 27.35 15.62 26.94 15.57 26.43 15.75 25.97 15.75 25.97 18.81 17.7 18.81 17.7 18.81 17.7 18.81 15.26 18.81 15.26 18.23 15.06 17.82 14.51 17.82 13.87 17.82 13.87 17.82 13.47 17.82 13.47 17.82 12.66 18.48 12 19.3 12 19.3 12 23.67 12 23.67 12 24.49 12 25.15 12.66 25.15 13.47 25.15 13.47 25.15 13.87 25.15 13.87 25.15 14.51 24.73 15.06 24.15 15.26 24.15 15.26 24.15 17.7 24.15 17.7 24.15 17.7 27.22 25.99 27.22 25.99ZM 22.36 26.28C 22.84 26.28 23.23 25.89 23.23 25.41 23.23 24.93 22.84 24.55 22.36 24.55 21.88 24.55 21.49 24.93 21.49 25.41 21.49 25.89 21.88 26.28 22.36 26.28ZM 22.87 22.65C 22.87 22.3 22.59 22.02 22.25 22.02 21.9 22.02 21.62 22.3 21.62 22.65 21.62 22.99 21.9 23.27 22.25 23.27 22.59 23.27 22.87 22.99 22.87 22.65ZM 19.61 24.61C 19.89 24.61 20.12 24.39 20.12 24.11 20.12 23.83 19.89 23.61 19.61 23.61 19.33 23.61 19.11 23.83 19.11 24.11 19.11 24.39 19.33 24.61 19.61 24.61ZM 24.17 13.87C 24.17 13.87 24.17 13.47 24.17 13.47 24.17 13.2 23.95 12.97 23.67 12.97 23.67 12.97 19.3 12.97 19.3 12.97 19.02 12.97 18.79 13.2 18.79 13.47 18.79 13.47 18.79 13.87 18.79 13.87 18.79 14.14 19.02 14.37 19.3 14.37 19.3 14.37 19.78 14.37 19.78 14.37 19.78 14.37 19.79 14.85 19.79 14.85 19.79 14.85 19.79 17.87 19.79 17.87 19.79 17.87 18.65 20.96 18.65 20.96 18.65 20.96 18.69 20.96 18.69 20.96 18.69 20.96 23.36 20.88 24 20.22 24.01 20.21 24.02 20.2 24.03 20.19 24.03 20.19 23.18 17.87 23.18 17.87 23.18 17.87 23.18 14.37 23.18 14.37 23.18 14.37 23.67 14.37 23.67 14.37 23.95 14.37 24.17 14.14 24.17 13.87ZM 21.14 19.74C 20.77 19.74 20.46 19.44 20.46 19.07 20.46 18.69 20.77 18.39 21.14 18.39 21.52 18.39 21.82 18.69 21.82 19.07 21.82 19.44 21.52 19.74 21.14 19.74Z" fill="rgb(255,255,255)"/></svg>