<?xml version="1.0" encoding="utf-8"?>
<svg xmlns="http://www.w3.org/2000/svg"
	xmlns:xlink="http://www.w3.org/1999/xlink"
	width="40px" height="40px" viewBox="0 0 40 40">
<clipPath id="clip0"><path fillRule="evenodd" d="M-4 44C-4 44-4-4-4-4-4-4 44-4 44-4 44-4 44 44 44 44 44 44-4 44-4 44ZM 20 4C 11.16 4 4 11.16 4 20 4 28.84 11.16 36 20 36 28.84 36 36 28.84 36 20 36 11.16 28.84 4 20 4Z"/></clipPath><defs>
<symbol id="symbol0"><circle cx="20.00" cy="20.00" r="16.00"/></symbol></defs>
<g><use xlink:href="#symbol0" x="0" y="0" width="40" height="40" fill="rgb(27,214,173)"/><use xlink:href="#symbol0" x="0" y="0" width="40" height="40" fill="none" stroke="rgb(255,255,255)" stroke-width="4.00px" clip-path="url(#clip0)"/></g><path fillRule="evenodd" d="M 28 26.24C 28 26.88 27.39 27.03 25.3 27.17 23.88 27.27 22 27.33 20 27.33 18 27.33 16.12 27.27 14.7 27.17 12.61 27.03 12 26.88 12 26.24 12 25.59 12.61 25.45 14.7 25.3 15.3 25.26 15.99 25.23 16.73 25.2 15.24 23.91 14.27 21.77 14.27 19.35 14.27 19.04 14.52 18.79 14.83 18.79 14.83 18.79 25.17 18.79 25.17 18.79 25.48 18.79 25.73 19.04 25.73 19.35 25.73 19.65 25.71 19.95 25.68 20.24 26.34 20.07 27.06 20.34 27.44 20.96 27.66 21.33 27.73 21.76 27.63 22.19 27.53 22.61 27.27 22.96 26.9 23.19 26.65 23.35 26.36 23.43 26.07 23.43 25.94 23.43 25.82 23.41 25.69 23.38 25.4 23.31 25.14 23.16 24.94 22.95 24.52 23.84 23.94 24.61 23.27 25.2 24.01 25.23 24.7 25.26 25.3 25.3 27.39 25.45 28 25.59 28 26.24ZM 25.27 22.29C 25.4 22.51 25.6 22.66 25.85 22.72 26.09 22.78 26.34 22.74 26.55 22.61 26.77 22.48 26.92 22.27 26.98 22.03 27.03 21.78 27 21.53 26.87 21.31 26.6 20.87 26.02 20.72 25.58 21 25.58 21 25.57 21 25.57 21 25.49 21.43 25.37 21.85 25.23 22.25 25.24 22.27 25.26 22.28 25.27 22.29ZM 24.59 19.92C 24.59 19.92 15.41 19.92 15.41 19.92 15.63 22.96 17.6 25.35 20 25.35 22.4 25.35 24.37 22.96 24.59 19.92ZM 21.78 17.15C 21.82 17.29 21.8 17.44 21.71 17.56 21.63 17.66 21.51 17.72 21.38 17.72 21.38 17.72 21.35 17.72 21.35 17.72 21.11 17.7 20.8 17.56 20.64 17.23 20.45 16.82 20.57 16.28 21.03 15.57 21.05 15.53 21.08 15.49 21.1 15.45 21.1 15.45 21.13 15.4 21.13 15.4 21.48 14.81 21.42 14.6 21.41 14.58 21.41 14.58 21.43 14.59 21.46 14.59 21.35 14.56 21.26 14.49 21.21 14.39 21.15 14.29 21.14 14.17 21.17 14.06 21.24 13.85 21.48 13.71 21.7 13.78 21.76 13.79 22.06 13.9 22.2 14.28 22.35 14.69 22.23 15.21 21.84 15.86 21.53 16.43 21.77 17.14 21.78 17.15ZM 19.42 17.03C 19.48 17.18 19.45 17.34 19.36 17.46 19.27 17.57 19.14 17.64 19 17.64 19 17.64 18.96 17.64 18.96 17.64 18.72 17.61 18.24 17.45 18.02 16.98 17.74 16.4 17.94 15.56 18.63 14.51 18.68 14.43 18.73 14.35 18.77 14.27 18.77 14.27 18.79 14.24 18.79 14.24 19.38 13.25 19.33 12.81 19.28 12.67 19.24 12.58 19.18 12.55 19.18 12.55 18.96 12.48 18.83 12.23 18.9 11.99 18.96 11.75 19.22 11.62 19.45 11.69 19.5 11.7 19.93 11.84 20.12 12.36 20.33 12.94 20.14 13.74 19.55 14.73 18.99 15.77 19.42 17.02 19.42 17.03Z" fill="rgb(255,255,255)"/></svg>