<?xml version="1.0" encoding="utf-8"?>
<svg xmlns="http://www.w3.org/2000/svg"
	xmlns:xlink="http://www.w3.org/1999/xlink"
	width="41px" height="40px" viewBox="0 0 41 40">
<clipPath id="clip0"><path fillRule="evenodd" d="M-3.06 43.97C-3.06 43.97-3.06-4.03-3.06-4.03-3.06-4.03 44.97-4.03 44.97-4.03 44.97-4.03 44.97 43.97 44.97 43.97 44.97 43.97-3.06 43.97-3.06 43.97ZM 20.95 3.97C 12.11 3.97 4.94 11.13 4.94 19.97 4.94 28.81 12.11 35.97 20.95 35.97 29.8 35.97 36.97 28.81 36.97 19.97 36.97 11.13 29.8 3.97 20.95 3.97Z"/></clipPath><defs>
<symbol id="symbol0"><circle cx="21.00" cy="20.00" r="16.00"/></symbol></defs>
<g><use xlink:href="#symbol0" x="0" y="0" width="41" height="40" fill="rgb(78,114,218)"/><use xlink:href="#symbol0" x="0" y="0" width="41" height="40" fill="none" stroke="rgb(255,255,255)" stroke-width="4.00px" clip-path="url(#clip0)"/></g><path fillRule="evenodd" d="M 24.58 25.6C 24.57 25.64 24.54 25.68 24.5 25.7 24.48 25.71 24.45 25.72 24.42 25.72 24.41 25.72 24.39 25.72 24.38 25.72 24.38 25.72 18.55 23.96 18.55 23.96 18.5 23.94 18.46 23.9 18.45 23.85 18.43 23.8 18.44 23.74 18.48 23.7 18.48 23.7 24.27 16.9 24.27 16.9 24.27 16.9 16.73 23.29 16.73 23.29 16.68 23.33 16.62 23.34 16.57 23.33 16.57 23.33 11.61 21.76 11.61 21.76 11.55 21.74 11.5 21.69 11.5 21.62 11.49 21.56 11.53 21.5 11.58 21.47 11.58 21.47 27.26 13.52 27.26 13.52 27.32 13.49 27.39 13.49 27.44 13.53 27.48 13.57 27.51 13.64 27.49 13.7 27.49 13.7 24.58 25.6 24.58 25.6ZM 18.65 25.2C 18.65 25.2 20.26 25.69 20.26 25.69 20.31 25.71 20.34 25.74 20.36 25.79 20.38 25.84 20.37 25.89 20.35 25.93 20.35 25.93 18.74 28.45 18.74 28.45 18.71 28.5 18.65 28.53 18.6 28.53 18.59 28.53 18.57 28.53 18.56 28.52 18.49 28.5 18.44 28.44 18.44 28.37 18.44 28.37 18.44 25.36 18.44 25.36 18.44 25.31 18.46 25.26 18.5 25.23 18.55 25.2 18.6 25.19 18.65 25.2Z" fill="rgb(255,255,255)"/></svg>